<?xml version="1.0" encoding="UTF-8" standalone="no"?>
<!DOCTYPE svg PUBLIC "-//W3C//DTD SVG 1.1//EN" "http://www.w3.org/Graphics/SVG/1.1/DTD/svg11.dtd">
<svg width="100%" height="100%" 
  viewBox="120 40 200 200" 
  version="1.1" 
  xmlns="http://www.w3.org/2000/svg" 
  xmlns:xlink="http://www.w3.org/1999/xlink" 
  xml:space="preserve" xmlns:serif="http://www.serif.com/"
  style="fill-rule:evenodd;clip-rule:evenodd;stroke-linejoin:round;stroke-miterlimit:2;"
>
        
    <rect width="1001%" height="1000%" fill="red" />

    <g >
        <g id="KPD-ML-PNG-2.png">
            <g>
              <animateTransform
                attributeName="transform"
                type="rotate"
                from="0 220 140"
                to="360 220 140"
                dur="130s"
                repeatCount="indefinite"
              />
            <path d="M283.565,172.499C283.985,187.585 285.592,238.277 283.577,238.001C282.571,237.864 238.323,223.115 222.536,218.384C219.289,217.411 159.227,239.572 155.963,240.507C153.101,241.328 156.333,173.065 155.379,171.575C154.892,170.816 118.611,123.763 117.118,121.806C115.498,119.682 114.12,118.754 116.648,117.828C118.45,117.168 177.551,98.218 179.105,97.014C180.284,96.099 217.757,42.961 218.229,42.559C220.039,41.021 256.985,95.758 262.548,97.322C270.541,99.57 321.819,114.566 322.131,114.885C322.995,115.77 283.472,169.191 283.565,172.499Z" style="fill:rgb(254,203,0);"/>
            </g>
            <g>
              <animateTransform
                attributeName="transform"
                type="rotate"
                from="0 230 180"
                to="360 230 180"
                dur="14s"
                repeatCount="indefinite"
              />
            <path d="M230.593,179.895C217.601,181.862 212.943,179.487 202.711,173.111C200.963,172.021 200.833,172.883 194.578,176.633C191.864,178.259 191.632,178.433 191.615,181.501C191.604,183.435 191.6,184.313 181.198,203.327C178.333,208.564 177.995,198.908 166.238,191.918C163.326,190.186 164.862,189.197 168.318,185.338C169.529,183.986 181.234,170.917 184.413,169.353C187.401,167.882 191.469,173.429 193.679,166.555C194.758,163.198 189.533,158.463 189.514,158.459C187.313,157.986 170.464,168.051 168.578,167.26C165.43,165.941 163.245,156.835 166.391,155.294C166.754,155.116 182.894,149.033 189.452,146.396C191.6,145.533 194.195,144.121 195.629,146.411C199.372,152.388 200.018,154.233 203.749,151.903C216.964,143.649 217.284,143.834 217.6,142.534C218.016,140.825 214.533,135.154 213.355,132.572C212.243,130.136 211.909,129.339 209.563,130.621C204.319,133.488 203.137,134.971 200.983,131.223C198.497,126.896 195.95,125.642 200.318,123.191C213.872,115.584 214.442,114.03 217.443,115.597C222.621,118.301 233.239,117.384 233.588,119.036C233.936,120.689 219.883,124.282 219.532,125.515C219.055,127.194 221.965,131.156 224.337,135.59C226.092,138.872 227.08,137.031 230.261,135.123C231.299,134.501 241.517,128.372 242.86,126.751C243.66,125.786 243.116,124.849 243.033,124.707C240.525,120.383 238.767,117.735 238.767,117.735L247.624,123.639L269.731,109.708L271.492,109.51L272.065,110.22L271.175,111.67C271.175,111.67 260.595,118.98 252.074,126.048C248.484,129.025 258.23,132.49 258.508,147.5C258.805,163.513 246.357,171.304 245.882,173.531C245.424,175.678 251.662,181.079 249.241,184.319C246.946,187.391 241.092,189.163 239.371,185.566C236.55,179.671 236.457,178.186 232.46,179.372C231.483,179.662 231.529,179.633 230.593,179.895ZM218.398,165.896C219.235,166.017 228.813,167.397 228.872,164.506C228.873,164.422 222.784,150.574 221.53,150.389C220.384,150.221 220.335,150.427 209.748,158.802C206.043,161.733 212.706,163.902 218.398,165.896ZM245.174,148.388C245.512,147.174 247.381,140.467 246.039,132.665C245.575,129.964 239.932,135.614 233.442,140.424C229.891,143.056 228.609,143.515 230.813,147.313C232.013,149.38 236.982,158.497 237.241,158.79C237.934,159.574 240.123,160.621 245.174,148.388Z"/>
          </g>
        </g>
    </g>
</svg>
