<svg xmlns="http://www.w3.org/2000/svg" id="Layer_1" width="5.911in" height="5.946in" viewBox="0 0 425.594 428.14"><path id="path981" d="M227.976,0c10.456,2.189,21.199,2.564,31.581,5.272,81.645,21.338,135.996,72.209,157.716,153.509,22.432,83.994-.925,156.858-64.874,215.622-35.216,32.36-77.606,49.82-125.606,53.221-102.432,7.248-196.163-62.539-220.732-163.686C-20.806,153.34,44.046,40.554,152.991,8.415c12.953-3.826,26.162-6.351,39.644-7.423,1.439-.118,2.842-.645,4.259-.984h31.082v-.007ZM54.142,336.036c1.256,1.689,2.482,3.415,3.789,5.073,9.083,11.536,19.591,21.625,30.906,30.965,65.777,54.3,161.813,59.99,231.886,11.498,71.02-49.146,102.094-117.367,89.156-203.564-6.873-45.79-28.71-84.537-63.045-115.436C301.697,23.952,248.389,6.887,187.84,13.407c-9.487,1.02-18.922,2.725-28.196,5.889,81.131,5.324,139.719,42.809,166.058,120.62,23.769,70.219,7.813,134.763-47.346,184.026-69.83,62.407-146.364,62.656-224.213,12.093h0ZM269.11,131.179c-62.766,28.783-123.073,61.166-172.101,111.133,8.591.154,16.859,2.379,24.202-5.037,29.393-29.694,62.869-54.279,98.122-76.542,16.367-10.331,33.256-19.752,49.777-29.554ZM102.84,282.162c-1.946-6.029-3.407-11.124-5.25-16.073-1.079-2.886-.668-4.684,1.902-6.579,4.083-2.996,7.828-6.461,12.857-10.677-6.653,0-11.756-.169-16.837.073-2.893.133-4.295-.844-5.133-3.619-1.549-5.161-3.459-10.215-5.764-16.889-1.542,5.213-2.548,8.694-3.605,12.153q-2.687,8.841-11.815,8.988c-3.547.073-7.093,0-10.647,0,3.928,4.281,7.82,7.416,12.035,10.052,3.209,2.004,4.068,4.098,2.687,7.71-1.748,4.589-2.915,9.406-4.817,15.75,5.067-3.906,8.892-6.667,12.505-9.693,2.952-2.474,5.522-2.908,8.767-.316,3.87,3.076,8.114,5.676,13.114,9.119ZM209.464,149.294c-1.079-.287-1.513-.558-1.733-.441-5.683,3.048-11.396,6.036-16.991,9.23-34.284,19.605-66.379,42.176-94.458,70.139-4.34,4.317-4.281,4.376-.8,8.87,33.909-34.269,71.923-63.244,113.982-87.798ZM115.895,82.872c.015.353.037.697.051,1.051,4.457,1.101,8.863,2.481,13.379,3.216,4.068.669,5.992,2.585,6.638,6.674.822,5.177,2.269,10.251,3.804,16.896,1.571-7.094,2.849-12.629,4.016-18.196.587-2.82,1.946-4.369,5-4.942,5.074-.939,10.045-2.438,15.06-3.707-4.391-2.078-8.775-3.23-13.224-3.994-4.097-.705-6.469-2.526-7.144-6.916-.793-5.132-2.262-10.163-3.429-15.236-1.946,5.22-3.341,10.369-4.141,15.611-.595,3.885-2.46,5.728-6.234,6.403-4.626.837-9.186,2.078-13.775,3.143v-.002ZM112.473,259.071c33.41-33.161,69.514-62.767,109.408-87.753-2.328.61-4.398,1.646-6.351,2.856-11.139,6.902-22.352,13.709-33.366,20.809-20.707,13.357-39.886,28.688-57.883,45.511-.683.638-2.886,1.931-1.388,2.424,4.406,1.44.742,2.768.051,3.517-3.716,4.008-8.07,7.438-10.471,12.637ZM184.741,314.78c-4.553-2.417-8.826-2.953-12.894-3.693-3.98-.728-5.47-2.644-6.278-6.396-.999-4.641-1.336-9.532-3.958-14.451-1.212,5.514-2.497,10.331-3.275,15.229-.521,3.282-2.218,4.634-5.265,5.426-4.332,1.131-8.958,1.432-13.489,3.899,4.854,1.321,9.076,2.687,13.393,3.569,3.187.645,4.692,2.151,5.265,5.389.881,5.037,2.276,9.987,3.525,15.281,1.982-3.254,2.357-6.705,2.651-9.869.676-7.262,3.686-11.514,11.367-12.05,2.695-.19,5.331-1.359,8.958-2.336v.002ZM161.178,163.915c-.323-.375-.646-.742-.969-1.117-7.453,4.993-15.016,9.84-22.337,15.023-14.495,10.265-28.196,21.514-40.752,34.107-1.285,1.293-3.642,2.908-1.549,5.066,2.041,2.108,3.679.125,5.059-1.336,18.335-19.4,38.542-36.612,60.549-51.746v.002ZM196.893,204.882c-1.351-.963-2.034-.073-2.776.346-11.499,6.337-22.469,13.519-33.131,21.139-10.236,7.321-19.95,15.288-28.85,24.21-1.248,1.248-3.157,2.644-1.167,4.589,1.66,1.63,3.047,0,4.303-.97,1.013-.8,1.909-1.748,2.82-2.666,12.585-12.57,26.214-23.9,40.745-34.151,5.948-4.179,11.961-8.275,18.056-12.497v-.002ZM232.903,272.222c8.621,3.496,8.18,9.304,5.265,16.265,5.661-6.47,10.911-6.029,16.463.5q-1.792-10.552,5.434-17.857c-9.693,3.408-12.174-1.997-13.797-9.053-1.263,7.461-4.376,12.058-13.364,10.148v-.004ZM32.885,212.737c5.566-6.726,10.757-5.235,16.609-.396-5.103-7.549-1.226-11.749,4.934-15.978-9.45,3.23-11.47-2.953-13.907-9.693.242,9.392-5.015,11.147-12.835,10.222,6.682,3.797,9.788,8.173,5.199,15.845ZM267.267,177.498c-2.32,1.938-2.159,4.869-2.291,7.07-.286,4.957-2.944,6.667-7.255,7.262-2.151.294-4.486.249-6.219,2.123,3.972,1.219,8.914,1.328,11.337,3.854,2.518,2.628,2.607,7.592,3.752,11.536.595-10.346,6.418-14.935,16.507-15.317-4.362-1.741-9.12-1.99-12.174-4.399-3.216-2.555-2.019-7.931-3.657-12.131v.002ZM249.563,81.058c-.903,6.351-3.091,11.315-11.22,12.072,8.29-.455,9.736,5.161,11.455,10.978-.147-7.9,5.111-9.869,11.492-11.55-8.65.572-10.618-4.677-11.726-11.498v-.002ZM106.951,148.194c-5.801-.308-8.312-3.797-9.391-9.15-.073,5.977-3.554,8.194-8.973,9.112q7.269,2.872,9.597,9.377c-.455-6.461,3.752-7.981,8.767-9.34h0ZM81.398,101.501c-.382-2.834-1.748-4.803-4.846-4.942-3.113-.147-4.92,1.587-5.015,4.582-.095,2.981,1.799,4.964,4.677,5.118,2.952.154,4.604-1.843,5.184-4.758h0ZM94.329,316.117c-3.091.242-4.986,1.895-5.015,4.898-.029,3.055,2.049,4.919,4.92,4.942,2.878,0,4.876-1.791,4.905-4.912.029-3.15-1.902-4.604-4.81-4.926v-.002ZM301.91,228.739c-.301,4.876-2.761,7.746-7.967,8.797,5.918,0,6.682,4.193,8.128,8.004.389-4.919,3.319-7.21,7.761-8.379-5.045-.676-7.365-3.458-7.923-8.422ZM214.78,242.029c-.36-2.365-1.52-4.414-4.692-4.568-3.194-.154-4.846,1.755-4.978,4.604-.132,2.915,1.777,5.037,4.611,5.17,2.834.14,4.685-1.71,5.059-5.206h0ZM202.643,65.133c3.04-.543,4.986-2.158,4.839-5.199-.147-2.886-1.74-4.919-4.934-4.743-3.054.169-4.663,1.976-4.663,5.059,0,3.223,2.041,4.471,4.758,4.883ZM176.392,119.22c-2.981.514-4.831,2.262-4.788,5.147.044,2.967,1.99,4.618,5.022,4.553,3.091-.073,4.751-1.888,4.67-4.869-.095-3.017-2.173-4.406-4.905-4.831h0ZM33.002,264.146c-2.144.169-3.517,1.556-3.605,3.797-.081,2.313,1.432,3.87,3.701,3.878,2.173,0,3.884-1.271,3.884-3.693,0-2.343-1.439-3.605-3.98-3.98v-.002ZM230.81,320.751c-2.438.213-3.532,1.784-3.422,4.053.103,2.078,1.513,3.517,3.554,3.472,2.203-.073,3.811-1.3,3.752-3.811-.051-2.452-1.446-3.605-3.884-3.716v.002ZM301.198,158.571c1.784-.595,3.51-1.468,3.444-3.987-.051-2.144-1.182-3.444-3.326-3.576-2.181-.14-3.459,1.065-3.664,3.187-.235,2.357.991,3.759,3.547,4.376Z" fill="#1a1a1a" stroke-width="0"/></svg>